<svg xmlns="http://www.w3.org/2000/svg" xmlns:xlink="http://www.w3.org/1999/xlink" width="194" zoomAndPan="magnify" viewBox="0 0 145.5 34.499999" height="46" preserveAspectRatio="xMidYMid meet" version="1.0"><defs><g/><clipPath id="8f2d5b135f"><path d="M 12.253906 0.960938 L 29 0.960938 L 29 32.75 L 12.253906 32.75 Z M 12.253906 0.960938 " clip-rule="nonzero"/></clipPath><clipPath id="c649d37644"><path d="M 30 1 L 46 1 L 46 32.75 L 30 32.75 Z M 30 1 " clip-rule="nonzero"/></clipPath></defs><g fill="#003b73" fill-opacity="1"><g transform="translate(49.782978, 20.054086)"><g><path d="M 13 -10.203125 L 13 -5.046875 C 13 -4.347656 12.863281 -3.691406 12.59375 -3.078125 C 12.332031 -2.472656 11.972656 -1.9375 11.515625 -1.46875 C 11.054688 -1.007812 10.519531 -0.648438 9.90625 -0.390625 C 9.300781 -0.128906 8.648438 0 7.953125 0 L 0 0 L 0 -13.109375 L 0.59375 -12.984375 C 1.164062 -12.835938 1.628906 -12.535156 1.984375 -12.078125 C 2.347656 -11.628906 2.53125 -11.109375 2.53125 -10.515625 L 2.53125 -3.625 C 2.53125 -3.332031 2.640625 -3.078125 2.859375 -2.859375 C 3.078125 -2.640625 3.332031 -2.53125 3.625 -2.53125 L 7.265625 -2.53125 C 7.847656 -2.53125 8.378906 -2.675781 8.859375 -2.96875 C 9.347656 -3.257812 9.734375 -3.644531 10.015625 -4.125 C 10.304688 -4.613281 10.453125 -5.148438 10.453125 -5.734375 L 10.453125 -9.515625 C 10.453125 -10.097656 10.304688 -10.628906 10.015625 -11.109375 C 9.734375 -11.597656 9.347656 -11.988281 8.859375 -12.28125 C 8.378906 -12.570312 7.847656 -12.71875 7.265625 -12.71875 L 2.59375 -12.71875 C 2.007812 -12.71875 1.488281 -12.894531 1.03125 -13.25 C 0.570312 -13.613281 0.273438 -14.082031 0.140625 -14.65625 L 0 -15.25 L 7.953125 -15.25 C 8.648438 -15.25 9.300781 -15.117188 9.90625 -14.859375 C 10.519531 -14.597656 11.054688 -14.234375 11.515625 -13.765625 C 11.972656 -13.304688 12.332031 -12.769531 12.59375 -12.15625 C 12.863281 -11.550781 13 -10.898438 13 -10.203125 Z M 13 -10.203125 "/></g></g></g><g fill="#003b73" fill-opacity="1"><g transform="translate(65.875846, 20.054086)"><g><path d="M 13 -10.203125 L 13 -5.046875 C 13 -4.347656 12.863281 -3.691406 12.59375 -3.078125 C 12.332031 -2.472656 11.972656 -1.9375 11.515625 -1.46875 C 11.054688 -1.007812 10.519531 -0.648438 9.90625 -0.390625 C 9.300781 -0.128906 8.648438 0 7.953125 0 L 0 0 L 0 -13.109375 L 0.59375 -12.984375 C 1.164062 -12.835938 1.628906 -12.535156 1.984375 -12.078125 C 2.347656 -11.628906 2.53125 -11.109375 2.53125 -10.515625 L 2.53125 -3.625 C 2.53125 -3.332031 2.640625 -3.078125 2.859375 -2.859375 C 3.078125 -2.640625 3.332031 -2.53125 3.625 -2.53125 L 7.265625 -2.53125 C 7.847656 -2.53125 8.378906 -2.675781 8.859375 -2.96875 C 9.347656 -3.257812 9.734375 -3.644531 10.015625 -4.125 C 10.304688 -4.613281 10.453125 -5.148438 10.453125 -5.734375 L 10.453125 -9.515625 C 10.453125 -10.097656 10.304688 -10.628906 10.015625 -11.109375 C 9.734375 -11.597656 9.347656 -11.988281 8.859375 -12.28125 C 8.378906 -12.570312 7.847656 -12.71875 7.265625 -12.71875 L 2.59375 -12.71875 C 2.007812 -12.71875 1.488281 -12.894531 1.03125 -13.25 C 0.570312 -13.613281 0.273438 -14.082031 0.140625 -14.65625 L 0 -15.25 L 7.953125 -15.25 C 8.648438 -15.25 9.300781 -15.117188 9.90625 -14.859375 C 10.519531 -14.597656 11.054688 -14.234375 11.515625 -13.765625 C 11.972656 -13.304688 12.332031 -12.769531 12.59375 -12.15625 C 12.863281 -11.550781 13 -10.898438 13 -10.203125 Z M 13 -10.203125 "/></g></g></g><g fill="#003b73" fill-opacity="1"><g transform="translate(81.968715, 20.054086)"><g><path d="M 12.640625 -0.140625 L 12.046875 -0.03125 C 11.484375 0.0507812 10.953125 -0.0390625 10.453125 -0.3125 C 9.953125 -0.582031 9.59375 -0.988281 9.375 -1.53125 L 9.25 -1.84375 L 6.328125 -8.921875 L 3.390625 -1.84375 L 3.265625 -1.53125 C 3.046875 -0.988281 2.6875 -0.578125 2.1875 -0.296875 C 1.6875 -0.0234375 1.15625 0.0625 0.59375 -0.03125 L 0 -0.140625 L 1.109375 -2.78125 L 4.96875 -12.15625 L 4.84375 -12.46875 L 3.75 -15.140625 L 4.328125 -15.21875 C 4.691406 -15.28125 5.046875 -15.257812 5.390625 -15.15625 C 5.734375 -15.050781 6.039062 -14.890625 6.3125 -14.671875 C 6.570312 -14.890625 6.878906 -15.050781 7.234375 -15.15625 C 7.585938 -15.257812 7.945312 -15.28125 8.3125 -15.21875 L 8.890625 -15.140625 L 7.796875 -12.46875 L 7.65625 -12.15625 L 11.53125 -2.78125 Z M 12.640625 -0.140625 "/></g></g></g><g fill="#003b73" fill-opacity="1"><g transform="translate(97.508649, 20.054086)"><g><path d="M 13 -11.15625 L 13 -9.84375 C 13 -9.09375 12.8125 -8.40625 12.4375 -7.78125 C 12.070312 -7.15625 11.578125 -6.660156 10.953125 -6.296875 C 10.335938 -5.929688 9.65625 -5.75 8.90625 -5.75 L 8.828125 -5.75 L 13 -0.515625 L 12.453125 -0.25 C 11.910156 0.0078125 11.351562 0.0703125 10.78125 -0.0625 C 10.21875 -0.195312 9.75 -0.492188 9.375 -0.953125 L 5.546875 -5.75 C 5.023438 -5.820312 4.5625 -6.035156 4.15625 -6.390625 C 3.757812 -6.742188 3.503906 -7.179688 3.390625 -7.703125 L 3.234375 -8.296875 L 8.671875 -8.296875 C 9.171875 -8.296875 9.59375 -8.46875 9.9375 -8.8125 C 10.28125 -9.15625 10.453125 -9.570312 10.453125 -10.0625 L 10.453125 -10.890625 C 10.453125 -11.390625 10.269531 -11.816406 9.90625 -12.171875 C 9.550781 -12.535156 9.128906 -12.71875 8.640625 -12.71875 L 2.53125 -12.71875 L 2.53125 -2.53125 C 2.53125 -1.957031 2.351562 -1.445312 2 -1 C 1.65625 -0.5625 1.203125 -0.28125 0.640625 -0.15625 L 0 0 L 0 -15.25 L 8.90625 -15.25 C 9.65625 -15.25 10.335938 -15.0625 10.953125 -14.6875 C 11.578125 -14.320312 12.070312 -13.832031 12.4375 -13.21875 C 12.8125 -12.601562 13 -11.914062 13 -11.15625 Z M 13 -11.15625 "/></g></g></g><g fill="#003b73" fill-opacity="1"><g transform="translate(113.563388, 20.054086)"><g><path d="M 2.53125 -15.25 L 2.53125 -2.59375 C 2.53125 -2.007812 2.347656 -1.488281 1.984375 -1.03125 C 1.628906 -0.570312 1.164062 -0.273438 0.59375 -0.140625 L 0 0 L 0 -12.65625 C 0 -13.238281 0.179688 -13.757812 0.546875 -14.21875 C 0.921875 -14.675781 1.394531 -14.972656 1.96875 -15.109375 Z M 11.921875 -0.703125 L 11.40625 -0.375 C 10.90625 -0.0703125 10.363281 0.046875 9.78125 -0.015625 C 9.195312 -0.078125 8.691406 -0.320312 8.265625 -0.75 L 4.296875 -4.734375 L 3.671875 -5.34375 C 3.347656 -5.664062 3.1875 -6.054688 3.1875 -6.515625 C 3.1875 -6.984375 3.347656 -7.382812 3.671875 -7.71875 L 11.203125 -15.25 L 11.53125 -14.734375 C 11.832031 -14.234375 11.953125 -13.691406 11.890625 -13.109375 C 11.828125 -12.523438 11.585938 -12.023438 11.171875 -11.609375 L 6.078125 -6.53125 Z M 11.921875 -0.703125 "/></g></g></g><g clip-path="url(#8f2d5b135f)"><path fill="#003b73" d="M 27.949219 19.007812 Z M 20.667969 16.621094 Z M 28.054688 3.34375 Z M 22.546875 1.359375 Z M 14.800781 24.367188 C 14.800781 26.253906 16.214844 27.820312 18.039062 28.058594 C 18.296875 27.003906 18.839844 26.058594 19.585938 25.316406 C 20.644531 24.257812 22.105469 23.601562 23.726562 23.601562 C 24.125 23.601562 24.453125 23.925781 24.453125 24.328125 C 24.453125 24.730469 24.125 25.054688 23.726562 25.054688 C 23.671875 25.054688 23.617188 25.054688 23.566406 25.058594 C 24.023438 25.613281 24.457031 26.460938 24.425781 27.664062 C 24.414062 28.066406 24.078125 28.382812 23.683594 28.371094 C 23.28125 28.359375 22.964844 28.023438 22.976562 27.625 C 23.019531 26.0625 21.890625 25.492188 21.886719 25.488281 C 21.875 25.484375 21.867188 25.476562 21.855469 25.472656 C 21.394531 25.6875 20.972656 25.988281 20.617188 26.34375 C 19.820312 27.140625 19.328125 28.242188 19.328125 29.457031 C 19.328125 29.683594 19.34375 29.902344 19.375 30.113281 C 20.1875 31.714844 21.847656 32.816406 23.757812 32.816406 C 25.585938 32.816406 27.25 31.808594 28.101562 30.1875 L 28.15625 30.078125 L 28.15625 19.191406 C 28.082031 19.140625 28.011719 19.082031 27.953125 19 L 27.933594 18.984375 C 27.210938 17.941406 26.136719 17.296875 24.984375 17.089844 C 24.832031 17.0625 24.679688 17.042969 24.527344 17.03125 C 24.21875 17.359375 23.925781 17.734375 23.714844 18.136719 C 23.503906 18.539062 23.382812 18.96875 23.441406 19.390625 C 23.496094 19.804688 23.203125 20.183594 22.792969 20.242188 C 22.378906 20.296875 22 20.007812 21.941406 19.59375 C 21.839844 18.820312 22.027344 18.09375 22.371094 17.441406 C 22.382812 17.417969 22.390625 17.398438 22.402344 17.378906 C 22.109375 17.5 21.824219 17.65625 21.550781 17.847656 L 21.550781 17.84375 C 21.21875 18.074219 20.761719 18.003906 20.519531 17.675781 C 20.269531 17.34375 20.335938 16.871094 20.667969 16.621094 L 20.691406 16.601562 C 22.070312 15.644531 23.710938 15.332031 25.25 15.605469 C 26.308594 15.796875 27.316406 16.261719 28.15625 16.988281 L 28.15625 3.488281 C 28.121094 3.445312 28.085938 3.394531 28.058594 3.34375 L 28.050781 3.332031 C 27.5625 2.296875 26.703125 1.558594 25.710938 1.203125 C 24.714844 0.847656 23.582031 0.867188 22.550781 1.359375 C 21.519531 1.847656 20.78125 2.703125 20.425781 3.699219 C 20.066406 4.691406 20.089844 5.824219 20.578125 6.855469 C 20.738281 7.195312 20.59375 7.601562 20.253906 7.765625 C 19.910156 7.925781 19.503906 7.777344 19.34375 7.4375 C 18.96875 6.648438 18.804688 5.8125 18.820312 4.992188 C 16.375 5.269531 14.46875 7.351562 14.46875 9.867188 C 14.46875 10.269531 14.515625 10.671875 14.617188 11.0625 C 15.28125 10.960938 15.972656 10.992188 16.664062 11.167969 C 17.929688 11.492188 19.070312 12.304688 19.785156 13.519531 C 19.964844 13.820312 19.863281 14.207031 19.5625 14.386719 C 19.261719 14.566406 18.875 14.464844 18.695312 14.164062 C 17.707031 12.488281 15.675781 11.835938 13.898438 12.578125 C 12.863281 13.710938 12.277344 15.199219 12.277344 16.777344 C 12.277344 19.0625 13.511719 21.140625 15.472656 22.238281 C 15.039062 22.855469 14.804688 23.59375 14.804688 24.367188 Z M 14.800781 24.367188 " fill-opacity="1" fill-rule="evenodd"/></g><g clip-path="url(#c649d37644)"><path fill="#60a3d9" d="M 30.304688 14.988281 Z M 37.585938 17.378906 Z M 30.195312 30.652344 Z M 35.703125 32.640625 Z M 43.449219 9.628906 C 43.449219 7.742188 42.035156 6.179688 40.214844 5.941406 C 39.957031 6.992188 39.410156 7.9375 38.667969 8.679688 C 37.609375 9.742188 36.144531 10.394531 34.527344 10.394531 C 34.125 10.394531 33.800781 10.070312 33.800781 9.667969 C 33.800781 9.269531 34.125 8.941406 34.527344 8.941406 C 34.582031 8.941406 34.632812 8.941406 34.6875 8.9375 C 34.226562 8.382812 33.792969 7.535156 33.828125 6.332031 C 33.835938 5.933594 34.171875 5.617188 34.570312 5.628906 C 34.972656 5.636719 35.285156 5.972656 35.277344 6.371094 C 35.230469 7.933594 36.363281 8.503906 36.363281 8.507812 C 36.375 8.515625 36.382812 8.519531 36.394531 8.523438 C 36.859375 8.304688 37.277344 8.007812 37.636719 7.652344 C 38.429688 6.855469 38.925781 5.757812 38.925781 4.539062 C 38.925781 4.316406 38.910156 4.097656 38.875 3.882812 C 38.066406 2.28125 36.40625 1.183594 34.496094 1.183594 C 32.667969 1.183594 31.007812 2.1875 30.15625 3.8125 L 30.097656 3.921875 L 30.097656 14.804688 C 30.175781 14.851562 30.242188 14.914062 30.300781 14.996094 L 30.320312 15.015625 C 31.042969 16.058594 32.121094 16.703125 33.273438 16.910156 C 33.421875 16.9375 33.574219 16.957031 33.726562 16.96875 C 34.035156 16.640625 34.328125 16.265625 34.539062 15.863281 C 34.75 15.460938 34.871094 15.03125 34.816406 14.609375 C 34.761719 14.195312 35.046875 13.816406 35.460938 13.757812 C 35.875 13.703125 36.253906 13.992188 36.3125 14.40625 C 36.417969 15.179688 36.226562 15.90625 35.886719 16.558594 C 35.875 16.582031 35.863281 16.601562 35.847656 16.625 C 36.144531 16.5 36.429688 16.34375 36.703125 16.15625 L 36.707031 16.160156 C 37.039062 15.929688 37.496094 16 37.738281 16.328125 C 37.988281 16.660156 37.921875 17.132812 37.589844 17.382812 L 37.566406 17.398438 C 36.1875 18.359375 34.546875 18.667969 33.007812 18.394531 C 31.949219 18.207031 30.941406 17.738281 30.101562 17.015625 L 30.101562 30.511719 C 30.140625 30.558594 30.171875 30.605469 30.199219 30.660156 L 30.207031 30.671875 C 30.695312 31.703125 31.554688 32.441406 32.546875 32.800781 C 33.542969 33.15625 34.675781 33.132812 35.707031 32.644531 C 36.738281 32.15625 37.476562 31.296875 37.832031 30.304688 C 38.191406 29.3125 38.167969 28.179688 37.679688 27.144531 C 37.519531 26.804688 37.664062 26.398438 38.007812 26.242188 C 38.347656 26.078125 38.753906 26.226562 38.914062 26.566406 C 39.289062 27.359375 39.453125 28.195312 39.4375 29.011719 C 41.882812 28.738281 43.789062 26.65625 43.789062 24.136719 C 43.789062 23.734375 43.742188 23.332031 43.640625 22.941406 C 42.976562 23.042969 42.285156 23.011719 41.59375 22.839844 C 40.332031 22.511719 39.1875 21.703125 38.472656 20.488281 C 38.292969 20.1875 38.394531 19.800781 38.695312 19.621094 C 38.996094 19.445312 39.382812 19.546875 39.5625 19.84375 C 40.550781 21.519531 42.582031 22.175781 44.359375 21.429688 C 45.394531 20.296875 45.980469 18.808594 45.980469 17.230469 C 45.980469 14.945312 44.746094 12.867188 42.785156 11.769531 C 43.21875 11.152344 43.449219 10.414062 43.449219 9.640625 Z M 43.449219 9.628906 " fill-opacity="1" fill-rule="evenodd"/></g><g fill="#003b73" fill-opacity="1"><g transform="translate(49.782978, 28.919102)"><g><path d="M 2.84375 0 L 0.5 0 L 0.5 -0.703125 L 1.296875 -0.703125 L 1.296875 -4.203125 L 0.5 -4.203125 L 0.5 -4.90625 L 2.84375 -4.90625 L 2.84375 -4.203125 L 2.0625 -4.203125 L 2.0625 -0.703125 L 2.84375 -0.703125 Z M 2.84375 0 "/></g></g></g><g fill="#003b73" fill-opacity="1"><g transform="translate(55.439419, 28.919102)"><g><path d="M 4.125 -4.90625 L 4.875 -4.90625 L 4.875 0 L 4.1875 0 L 1.328125 -3.75 C 1.359375 -3.457031 1.382812 -3.171875 1.40625 -2.890625 C 1.425781 -2.609375 1.4375 -2.328125 1.4375 -2.046875 L 1.4375 0 L 0.6875 0 L 0.6875 -4.90625 L 1.375 -4.90625 L 4.21875 -1.09375 C 4.175781 -1.425781 4.148438 -1.789062 4.140625 -2.1875 C 4.128906 -2.582031 4.125 -2.953125 4.125 -3.296875 Z M 4.125 -4.90625 "/></g></g></g><g fill="#003b73" fill-opacity="1"><g transform="translate(63.303264, 28.919102)"><g><path d="M 4.125 -4.90625 L 4.875 -4.90625 L 4.875 0 L 4.1875 0 L 1.328125 -3.75 C 1.359375 -3.457031 1.382812 -3.171875 1.40625 -2.890625 C 1.425781 -2.609375 1.4375 -2.328125 1.4375 -2.046875 L 1.4375 0 L 0.6875 0 L 0.6875 -4.90625 L 1.375 -4.90625 L 4.21875 -1.09375 C 4.175781 -1.425781 4.148438 -1.789062 4.140625 -2.1875 C 4.128906 -2.582031 4.125 -2.953125 4.125 -3.296875 Z M 4.125 -4.90625 "/></g></g></g><g fill="#003b73" fill-opacity="1"><g transform="translate(71.16711, 28.919102)"><g><path d="M 5.15625 -2.453125 C 5.15625 -2.097656 5.09375 -1.765625 4.96875 -1.453125 C 4.851562 -1.148438 4.6875 -0.882812 4.46875 -0.65625 C 4.25 -0.425781 3.992188 -0.25 3.703125 -0.125 C 3.410156 0 3.09375 0.0625 2.75 0.0625 C 2.394531 0.0625 2.066406 0 1.765625 -0.125 C 1.472656 -0.25 1.21875 -0.425781 1 -0.65625 C 0.789062 -0.882812 0.628906 -1.148438 0.515625 -1.453125 C 0.398438 -1.765625 0.34375 -2.097656 0.34375 -2.453125 C 0.34375 -2.804688 0.398438 -3.132812 0.515625 -3.4375 C 0.628906 -3.75 0.789062 -4.019531 1 -4.25 C 1.21875 -4.476562 1.472656 -4.65625 1.765625 -4.78125 C 2.066406 -4.914062 2.394531 -4.984375 2.75 -4.984375 C 3.09375 -4.984375 3.410156 -4.914062 3.703125 -4.78125 C 3.992188 -4.65625 4.25 -4.476562 4.46875 -4.25 C 4.6875 -4.019531 4.851562 -3.75 4.96875 -3.4375 C 5.09375 -3.132812 5.15625 -2.804688 5.15625 -2.453125 Z M 4.375 -2.453125 C 4.375 -2.796875 4.300781 -3.101562 4.15625 -3.375 C 4.019531 -3.644531 3.828125 -3.859375 3.578125 -4.015625 C 3.335938 -4.171875 3.0625 -4.25 2.75 -4.25 C 2.425781 -4.25 2.140625 -4.171875 1.890625 -4.015625 C 1.640625 -3.859375 1.445312 -3.644531 1.3125 -3.375 C 1.175781 -3.101562 1.109375 -2.796875 1.109375 -2.453125 C 1.109375 -2.109375 1.175781 -1.800781 1.3125 -1.53125 C 1.445312 -1.269531 1.640625 -1.0625 1.890625 -0.90625 C 2.140625 -0.75 2.425781 -0.671875 2.75 -0.671875 C 3.0625 -0.671875 3.335938 -0.75 3.578125 -0.90625 C 3.828125 -1.0625 4.019531 -1.273438 4.15625 -1.546875 C 4.300781 -1.816406 4.375 -2.117188 4.375 -2.453125 Z M 4.375 -2.453125 "/></g></g></g><g fill="#003b73" fill-opacity="1"><g transform="translate(78.95387, 28.919102)"><g><path d="M 4.84375 -4.90625 L 2.875 0 L 2.125 0 L 0.171875 -4.90625 L 1.03125 -4.90625 L 2.203125 -1.921875 C 2.265625 -1.765625 2.320312 -1.609375 2.375 -1.453125 C 2.4375 -1.304688 2.492188 -1.148438 2.546875 -0.984375 C 2.597656 -1.148438 2.648438 -1.3125 2.703125 -1.46875 C 2.765625 -1.625 2.820312 -1.773438 2.875 -1.921875 L 3.96875 -4.90625 Z M 4.84375 -4.90625 "/></g></g></g><g fill="#003b73" fill-opacity="1"><g transform="translate(86.271122, 28.919102)"><g><path d="M 3.921875 0 L 3.46875 -1.21875 L 1.40625 -1.21875 L 0.953125 0 L 0.171875 0 L 2.078125 -4.90625 L 2.84375 -4.90625 L 4.734375 0 Z M 2.0625 -2.9375 L 1.6875 -1.953125 L 3.1875 -1.953125 L 2.8125 -2.953125 C 2.75 -3.117188 2.6875 -3.296875 2.625 -3.484375 C 2.5625 -3.679688 2.5 -3.875 2.4375 -4.0625 C 2.375 -3.863281 2.3125 -3.664062 2.25 -3.46875 C 2.1875 -3.269531 2.125 -3.09375 2.0625 -2.9375 Z M 2.0625 -2.9375 "/></g></g></g><g fill="#003b73" fill-opacity="1"><g transform="translate(93.483256, 28.919102)"><g><path d="M 1.625 0 L 1.625 -4.1875 L 0.25 -4.1875 L 0.25 -4.90625 L 3.796875 -4.90625 L 3.796875 -4.1875 L 2.375 -4.1875 L 2.375 0 Z M 1.625 0 "/></g></g></g><g fill="#003b73" fill-opacity="1"><g transform="translate(99.826445, 28.919102)"><g><path d="M 2.84375 0 L 0.5 0 L 0.5 -0.703125 L 1.296875 -0.703125 L 1.296875 -4.203125 L 0.5 -4.203125 L 0.5 -4.90625 L 2.84375 -4.90625 L 2.84375 -4.203125 L 2.0625 -4.203125 L 2.0625 -0.703125 L 2.84375 -0.703125 Z M 2.84375 0 "/></g></g></g><g fill="#003b73" fill-opacity="1"><g transform="translate(105.482885, 28.919102)"><g><path d="M 5.15625 -2.453125 C 5.15625 -2.097656 5.09375 -1.765625 4.96875 -1.453125 C 4.851562 -1.148438 4.6875 -0.882812 4.46875 -0.65625 C 4.25 -0.425781 3.992188 -0.25 3.703125 -0.125 C 3.410156 0 3.09375 0.0625 2.75 0.0625 C 2.394531 0.0625 2.066406 0 1.765625 -0.125 C 1.472656 -0.25 1.21875 -0.425781 1 -0.65625 C 0.789062 -0.882812 0.628906 -1.148438 0.515625 -1.453125 C 0.398438 -1.765625 0.34375 -2.097656 0.34375 -2.453125 C 0.34375 -2.804688 0.398438 -3.132812 0.515625 -3.4375 C 0.628906 -3.75 0.789062 -4.019531 1 -4.25 C 1.21875 -4.476562 1.472656 -4.65625 1.765625 -4.78125 C 2.066406 -4.914062 2.394531 -4.984375 2.75 -4.984375 C 3.09375 -4.984375 3.410156 -4.914062 3.703125 -4.78125 C 3.992188 -4.65625 4.25 -4.476562 4.46875 -4.25 C 4.6875 -4.019531 4.851562 -3.75 4.96875 -3.4375 C 5.09375 -3.132812 5.15625 -2.804688 5.15625 -2.453125 Z M 4.375 -2.453125 C 4.375 -2.796875 4.300781 -3.101562 4.15625 -3.375 C 4.019531 -3.644531 3.828125 -3.859375 3.578125 -4.015625 C 3.335938 -4.171875 3.0625 -4.25 2.75 -4.25 C 2.425781 -4.25 2.140625 -4.171875 1.890625 -4.015625 C 1.640625 -3.859375 1.445312 -3.644531 1.3125 -3.375 C 1.175781 -3.101562 1.109375 -2.796875 1.109375 -2.453125 C 1.109375 -2.109375 1.175781 -1.800781 1.3125 -1.53125 C 1.445312 -1.269531 1.640625 -1.0625 1.890625 -0.90625 C 2.140625 -0.75 2.425781 -0.671875 2.75 -0.671875 C 3.0625 -0.671875 3.335938 -0.75 3.578125 -0.90625 C 3.828125 -1.0625 4.019531 -1.273438 4.15625 -1.546875 C 4.300781 -1.816406 4.375 -2.117188 4.375 -2.453125 Z M 4.375 -2.453125 "/></g></g></g><g fill="#003b73" fill-opacity="1"><g transform="translate(113.269646, 28.919102)"><g><path d="M 4.125 -4.90625 L 4.875 -4.90625 L 4.875 0 L 4.1875 0 L 1.328125 -3.75 C 1.359375 -3.457031 1.382812 -3.171875 1.40625 -2.890625 C 1.425781 -2.609375 1.4375 -2.328125 1.4375 -2.046875 L 1.4375 0 L 0.6875 0 L 0.6875 -4.90625 L 1.375 -4.90625 L 4.21875 -1.09375 C 4.175781 -1.425781 4.148438 -1.789062 4.140625 -2.1875 C 4.128906 -2.582031 4.125 -2.953125 4.125 -3.296875 Z M 4.125 -4.90625 "/></g></g></g><g fill="#003b73" fill-opacity="1"><g transform="translate(121.133491, 28.919102)"><g><path d="M 0.875 -1.484375 C 1.0625 -1.203125 1.257812 -0.984375 1.46875 -0.828125 C 1.675781 -0.679688 1.945312 -0.609375 2.28125 -0.609375 C 2.4375 -0.609375 2.585938 -0.632812 2.734375 -0.6875 C 2.878906 -0.738281 3 -0.8125 3.09375 -0.90625 C 3.1875 -1.007812 3.234375 -1.128906 3.234375 -1.265625 C 3.234375 -1.492188 3.132812 -1.671875 2.9375 -1.796875 C 2.738281 -1.929688 2.457031 -2.035156 2.09375 -2.109375 C 1.632812 -2.203125 1.269531 -2.363281 1 -2.59375 C 0.726562 -2.832031 0.59375 -3.171875 0.59375 -3.609375 C 0.59375 -3.890625 0.671875 -4.128906 0.828125 -4.328125 C 0.984375 -4.535156 1.191406 -4.695312 1.453125 -4.8125 C 1.710938 -4.925781 1.988281 -4.984375 2.28125 -4.984375 C 2.675781 -4.984375 3.015625 -4.90625 3.296875 -4.75 C 3.578125 -4.601562 3.796875 -4.394531 3.953125 -4.125 L 3.421875 -3.59375 C 3.296875 -3.800781 3.132812 -3.96875 2.9375 -4.09375 C 2.75 -4.226562 2.523438 -4.296875 2.265625 -4.296875 C 2.003906 -4.296875 1.785156 -4.234375 1.609375 -4.109375 C 1.441406 -3.992188 1.359375 -3.832031 1.359375 -3.625 C 1.359375 -3.382812 1.445312 -3.207031 1.625 -3.09375 C 1.8125 -2.988281 2.054688 -2.90625 2.359375 -2.84375 C 2.640625 -2.78125 2.898438 -2.691406 3.140625 -2.578125 C 3.390625 -2.460938 3.59375 -2.3125 3.75 -2.125 C 3.90625 -1.945312 3.984375 -1.722656 3.984375 -1.453125 C 3.984375 -0.984375 3.820312 -0.613281 3.5 -0.34375 C 3.1875 -0.0703125 2.753906 0.0625 2.203125 0.0625 C 1.828125 0.0625 1.484375 -0.0078125 1.171875 -0.15625 C 0.859375 -0.300781 0.582031 -0.546875 0.34375 -0.890625 Z M 0.875 -1.484375 "/></g></g></g></svg>